HIERARCHY
ROOT Hips
{
  OFFSET 0 89.5177 0.535
  CHANNELS 6 Xposition Yposition Zposition Zrotation Xrotation Yrotation
  JOINT Spine
  {
    OFFSET 12.0259 -0.162855 1.69034e-005
    CHANNELS 3 Zrotation Xrotation Yrotation
    JOINT Spine1
    {
      OFFSET 15.3169 -0.0121922 0
      CHANNELS 3 Zrotation Xrotation Yrotation
      JOINT Spine2
      {
        OFFSET 15.3176 -0.0121908 0
        CHANNELS 3 Zrotation Xrotation Yrotation
        JOINT Neck
        {
          OFFSET 19.9142 1.56338 0
          CHANNELS 3 Zrotation Xrotation Yrotation
          JOINT Head
          {
            OFFSET 6.92651 0 0
            CHANNELS 3 Zrotation Xrotation Yrotation
            End Site
            {
              OFFSET 20.7666 0 0
            }
          }
          JOINT LeftShoulder
          {
            OFFSET -6.20654 0.708824 7.28219
            CHANNELS 3 Zrotation Xrotation Yrotation
            JOINT LeftArm
            {
              OFFSET 14.108 0 -1.52588e-005
              CHANNELS 3 Zrotation Xrotation Yrotation
              JOINT LeftForeArm
              {
                OFFSET 28.5802 0 0
                CHANNELS 3 Zrotation Xrotation Yrotation
                JOINT LeftHand
                {
                  OFFSET 27.092 0 0
                  CHANNELS 3 Zrotation Xrotation Yrotation
                  End Site
                  {
                    OFFSET 9.55928 -0.186424 0.145352
                  }
                }
              }
            }
          }
          JOINT RightShoulder
          {
            OFFSET -6.20654 0.708866 -7.28218
            CHANNELS 3 Zrotation Xrotation Yrotation
            JOINT RightArm
            {
              OFFSET 14.108 0 1.52588e-005
              CHANNELS 3 Zrotation Xrotation Yrotation
              JOINT RightForeArm
              {
                OFFSET 28.5802 0 0
                CHANNELS 3 Zrotation Xrotation Yrotation
                JOINT RightHand
                {
                  OFFSET 27.092 0 0
                  CHANNELS 3 Zrotation Xrotation Yrotation
                  End Site
                  {
                    OFFSET 9.55929 -0.186417 -0.145354
                  }
                }
              }
            }
          }
        }
      }
    }
  }
  JOINT LeftUpLeg
  {
    OFFSET 0.005 -0.535 8.837
    CHANNELS 3 Zrotation Xrotation Yrotation
    JOINT LeftLeg
    {
      OFFSET 39.9035 0 0
      CHANNELS 3 Zrotation Xrotation Yrotation
      JOINT LeftFoot
      {
        OFFSET 39.6689 0 0
        CHANNELS 3 Zrotation Xrotation Yrotation
        JOINT LeftToe
        {
          OFFSET 10.1624 13.6296 0
          CHANNELS 3 Zrotation Xrotation Yrotation
          End Site
          {
            OFFSET 8.38147 0 0
          }
        }
      }
    }
  }
  JOINT RightUpLeg
  {
    OFFSET 0.005 -0.535 -8.837
    CHANNELS 3 Zrotation Xrotation Yrotation
    JOINT RightLeg
    {
      OFFSET 39.9035 0 0
      CHANNELS 3 Zrotation Xrotation Yrotation
      JOINT RightFoot
      {
        OFFSET 39.6689 0 0
        CHANNELS 3 Zrotation Xrotation Yrotation
        JOINT RightToe
        {
          OFFSET 10.1624 13.6296 0
          CHANNELS 3 Zrotation Xrotation Yrotation
          End Site
          {
            OFFSET 8.38147 0 0
          }
        }
      }
    }
  }
}
MOTION
Frames:	19
Frame Time:	0.0333333
157.985 88.2775 280.226 49.6994 -70.7483 -31.281 3.89354 -1.73075 -1.6834 7.74016 -3.57068 -3.24751 7.74016 -3.57068 -3.24752 -8.30907e-012 -9.0191e-006 -5.27751e-005 7.60452 9.09134 4.58448 -179.365 -2.07754 -73.0081 -4.94065 8.02896 60.1563 -40.2196 -5.96354e-016 -6.21202e-016 -50.0268 -42.9651 -45.2574 -177.966 7.23364 74.2494 25.688 15.3762 -55.5186 -91.5127 7.95139e-016 3.18055e-015 -50.3985 38.3436 48.0146 10.2212 4.75735 169.702 -19.3523 -3.18055e-015 -0 14.8823 3.43775 -7.4036 90 2.98177e-016 -3.18055e-015 -4.11341 -15.0775 159.03 -6.08536 0 4.96962e-017 -6.62289 -4.59008 9.40478 90 -6.83322e-017 -1.98785e-016 
157.962 88.2595 280.374 49.0787 -70.8181 -31.8511 3.91393 -1.66905 -1.75074 7.78031 -3.45253 -3.38555 7.78031 -3.45253 -3.38556 -8.30907e-012 -9.0191e-006 -5.27751e-005 8.85535 9.1621 4.48724 -179.441 -1.84891 -73.1708 -4.33229 8.31247 60.2461 -39.5107 1.45982e-015 -2.11209e-015 -50.0346 -42.9078 -45.2493 -177.872 7.42163 73.953 25.9131 15.3088 -55.4608 -91.2846 3.18055e-015 9.54166e-015 -50.5956 38.306 48.1909 10.174 4.8197 169.587 -19.5382 -6.36111e-015 -1.59028e-015 14.8626 3.39438 -7.24467 90 1.78906e-015 -6.36111e-015 -4.16664 -14.855 158.962 -6.23444 1.59028e-015 2.18663e-015 -6.60973 -4.64145 9.48137 90 -6.52262e-017 -1.98785e-016 
157.971 88.2469 280.514 48.2855 -70.9379 -32.6218 3.94344 -1.6525 -1.79739 7.83832 -3.42349 -3.47897 7.83832 -3.42349 -3.47898 -8.30907e-012 -9.0191e-006 -5.27751e-005 9.96833 9.4116 4.43332 -179.395 -1.98332 -73.0244 -3.98129 8.65529 60.0166 -38.944 2.17421e-016 -2.85753e-016 -49.8568 -43.1067 -45.1908 -177.861 7.42297 73.8794 26.0832 15.1454 -55.6512 -91.2222 -6.36111e-015 -3.18055e-015 -50.4234 38.5697 48.1105 10.1939 5.09902 169.567 -19.7012 -3.18055e-015 -7.95139e-016 14.9231 3.45302 -7.43298 90 1.98785e-015 -3.18055e-015 -4.27996 -14.6744 158.943 -6.43823 -3.97569e-016 6.4605e-016 -6.61455 -4.70065 9.5639 90 4.03781e-017 3.97569e-016 
158.013 88.2381 280.649 47.4563 -71.0904 -33.4158 3.98119 -1.62992 -1.85776 7.91259 -3.38364 -3.6 7.91259 -3.38364 -3.60001 -8.30907e-012 -9.0191e-006 -5.27751e-005 10.6132 9.39873 4.68134 -179.363 -2.07823 -72.9497 -3.63143 8.96392 59.8514 -38.3777 1.73937e-016 -2.01269e-015 -50.0607 -43.1184 -45.4545 -177.835 7.44204 73.7329 26.0342 14.9676 -55.6633 -91.1736 2.38542e-015 -6.36111e-015 -50.4324 38.5591 48.1417 10.2789 5.5693 169.538 -19.7448 -3.18055e-015 -0 14.8826 3.44327 -7.35155 90 -2.28602e-015 3.18055e-015 -4.45908 -14.4209 158.922 -6.77124 3.97569e-016 2.28602e-015 -6.51405 -4.7656 9.62039 90 2.79541e-017 1.98785e-016 
158.071 88.2537 280.773 46.6847 -71.1894 -34.1759 4.03175 -1.63686 -1.91257 8.01189 -3.40284 -3.70755 8.01188 -3.40284 -3.70756 -8.30748e-012 -9.0191e-006 -5.27751e-005 10.9023 9.1779 5.11163 -179.325 -2.19109 -72.8725 -3.17913 9.0422 59.7012 -37.5754 5.46658e-016 -8.69683e-016 -49.8702 -43.2066 -45.2709 -177.831 7.41937 73.6552 25.9368 14.8231 -55.8211 -91.153 1.27222e-014 -3.18055e-015 -50.3044 38.6183 47.9863 10.3835 5.67764 169.559 -19.6629 -6.36111e-015 -1.59028e-015 14.8689 3.42825 -7.41579 90 -9.93923e-017 -0 -4.88062 -14.2409 158.868 -7.61511 0 1.49089e-015 -5.89871 -4.96778 9.79312 90 4.03781e-017 -0 
158.182 88.2871 280.892 46.2082 -71.2599 -34.7196 4.07636 -1.63161 -1.951 8.10012 -3.39643 -3.78333 8.10012 -3.39643 -3.78334 -8.30748e-012 -9.0191e-006 -5.27751e-005 10.8659 8.57922 5.70781 -179.331 -2.15051 -72.7185 -3.02069 9.40739 59.3855 -37.0372 -1.55301e-016 -7.7495e-016 -49.5577 -43.3966 -45.1186 -177.804 7.46863 73.5667 25.8871 14.6911 -55.9852 -91.1719 7.95139e-016 -9.54166e-015 -50.0512 38.7166 47.7733 10.4808 5.91835 169.674 -19.4765 -3.18055e-015 7.95139e-016 14.6762 3.49825 -7.53624 90 -2.78299e-015 -0 -5.3551 -14.3265 158.883 -8.39453 -1.59028e-015 1.88845e-015 -5.2011 -5.18104 9.9719 90 1.67725e-016 5.96354e-016 
158.334 88.3273 280.984 45.9508 -71.2629 -35.134 4.13284 -1.64932 -1.9647 8.2122 -3.43459 -3.80776 8.2122 -3.43459 -3.80777 -8.30589e-012 -9.0191e-006 -5.27751e-005 10.5095 7.73651 6.31346 -179.329 -2.15068 -72.6552 -3.00801 9.48016 59.1738 -36.1823 -6.95746e-016 2.31087e-015 -49.9699 -43.2455 -45.4392 -177.801 7.46316 73.531 25.8085 14.5025 -56.1852 -91.2036 3.18055e-015 -0 -50.1015 38.6378 47.8011 10.4563 6.15608 169.914 -19.4983 3.18055e-015 -7.95139e-016 14.6258 3.57382 -7.69799 90 -3.97569e-016 3.18055e-015 -5.73924 -14.9587 158.99 -9.0199 0 -2.18663e-015 -4.01827 -4.95714 9.26585 90 -3.10601e-017 4.96962e-017 
158.478 88.4071 280.98 45.7285 -71.0187 -35.5421 4.22355 -1.68733 -1.94692 8.39321 -3.51211 -3.7667 8.39321 -3.51211 -3.76671 -8.30589e-012 -9.0191e-006 -5.27751e-005 10.0202 6.58563 6.74949 -179.348 -2.08466 -72.6193 -2.97338 9.4008 59.0286 -35.3136 -9.93923e-017 1.36664e-015 -49.4464 -43.0589 -44.7883 -177.795 7.48235 73.5311 25.8008 14.3753 -56.4013 -91.2456 -2.38542e-015 3.18055e-015 -50.0019 38.6387 47.6878 10.7459 5.95999 170.189 -19.1553 6.36111e-015 -7.95139e-016 14.3842 3.52036 -7.53326 90 -1.2921e-015 1.27222e-014 -6.59493 -17.401 158.614 -9.83627 3.18056e-015 3.97569e-015 -2.313 -4.22441 8.3523 90 2.48481e-017 3.97569e-016 
158.606 88.4942 280.908 45.7897 -70.5977 -35.5646 4.31239 -1.73637 -1.92602 8.57033 -3.6113 -3.71853 8.57033 -3.6113 -3.71854 -8.30589e-012 -9.0191e-006 -5.27751e-005 9.62511 5.13706 7.13379 -179.424 -1.84419 -72.6517 -2.93817 9.33908 59.0123 -34.6519 -4.96962e-016 -1.73937e-015 -49.5368 -42.9175 -44.8321 -177.784 7.53879 73.5639 25.8481 14.2703 -56.532 -91.2388 2.38542e-015 6.36111e-015 -49.7489 38.7447 47.4442 11.1549 5.65674 170.448 -18.7098 3.18055e-015 -7.95139e-016 14.1627 3.61486 -7.73332 90 -9.93923e-017 -6.36111e-015 -7.8187 -21.5419 157.56 -10.2301 -1.59028e-015 -0 -1.66321 -3.23786 7.73003 90 9.93923e-017 1.59028e-015 
158.753 88.5444 280.75 45.8725 -70.0564 -35.3955 4.4068 -1.83884 -1.90772 8.75718 -3.81745 -3.67128 8.75718 -3.81745 -3.67129 -8.3043e-012 -9.0191e-006 -5.27751e-005 9.23039 3.86091 7.28392 -179.422 -1.84359 -72.6002 -3.13999 9.3046 58.9347 -34.3959 1.59028e-015 -3.23025e-015 -49.2942 -43.1047 -44.7588 -177.793 7.56024 73.6753 25.7741 14.215 -56.5724 -91.2986 -2.38542e-015 -9.54166e-015 -49.488 38.8213 47.2294 11.7134 5.549 170.645 -18.3414 0 1.59028e-015 14.1159 3.86039 -8.29064 90 1.59028e-015 3.18055e-015 -10.0147 -26.8281 155.562 -11.4898 -6.36111e-015 -1.98785e-016 -1.27659 -2.09174 6.60086 90 3.97569e-016 -0 
158.939 88.5503 280.548 45.7985 -69.6561 -35.2187 4.48415 -1.90359 -1.92728 8.90964 -3.95061 -3.70282 8.90964 -3.95061 -3.70282 -8.3043e-012 -9.0191e-006 -5.27751e-005 8.94257 2.59115 7.46624 -179.449 -1.76483 -72.6459 -3.23796 9.16535 58.9245 -34.2993 2.98177e-016 1.98785e-015 -49.316 -43.0029 -44.674 -177.789 7.58913 73.7018 25.7442 14.2978 -56.5427 -91.4138 7.95139e-016 -0 -49.4626 38.873 47.2583 12.1924 5.16374 170.669 -18.0164 -3.18055e-015 7.95139e-016 14.0742 3.94414 -8.54841 90 -6.95746e-016 -0 -12.5563 -30.1115 153.182 -14.834 3.18056e-015 4.96962e-016 -1.3938 -0.775042 3.71319 90 3.97569e-016 6.36111e-015 
159.261 88.5391 280.401 45.4157 -69.7326 -35.4264 4.50725 -1.88435 -1.95494 8.95538 -3.91507 -3.75874 8.95538 -3.91507 -3.75875 -8.30748e-012 -9.0191e-006 -5.27751e-005 8.63063 1.52168 7.72948 -179.468 -1.70459 -72.6671 -3.37722 9.22313 58.778 -34.7584 3.97569e-016 -1.2921e-015 -49.5067 -43.0151 -44.9213 -177.782 7.6107 73.698 25.7001 14.4569 -56.5639 -91.412 6.36111e-015 -6.36111e-015 -49.4968 38.9082 47.2867 12.3465 5.43966 170.746 -17.9486 6.36111e-015 2.38542e-015 14.0672 4.11131 -8.79831 90 -2.38542e-015 -0 -13.5978 -29.6749 152.377 -19.8753 -3.18056e-015 7.95139e-016 -0.19007 0.216705 -0.0756042 90 1.19271e-015 -0 
159.768 88.5066 280.217 44.7938 -70.2699 -36.1184 4.47918 -1.83031 -1.94488 8.90098 -3.80551 -3.74368 8.90098 -3.80551 -3.74369 -8.30589e-012 -9.0191e-006 -5.27751e-005 8.28804 0.791646 7.99935 -179.401 -1.91137 -72.5903 -3.47507 9.02113 58.5741 -35.1034 0 1.63997e-015 -49.8649 -43.0915 -45.291 -177.803 7.56349 73.7524 25.3826 14.5756 -56.6514 -91.3021 2.38542e-015 -0 -49.5671 38.6937 47.2595 12.1496 5.89787 171.113 -18.1526 0 -0 14.2131 4.11913 -8.81918 90 -9.93923e-017 9.54166e-015 -12.2521 -26.4305 153.447 -23.7816 0 -3.97569e-016 3.36767 -0.25046 1.24325 90 -1.19271e-015 6.36111e-015 
160.391 88.5111 280.021 44.172 -71.0171 -37.0029 4.41526 -1.74007 -1.9128 8.77652 -3.62089 -3.68847 8.77652 -3.62089 -3.68848 -8.30907e-012 -9.0191e-006 -5.27751e-005 8.07087 0.170423 8.42796 -179.403 -1.90932 -72.6379 -3.26021 8.73344 58.5283 -35.24 1.39149e-015 -2.43511e-015 -50.1315 -42.7552 -45.328 -177.808 7.53781 73.7347 25.0992 14.6892 -56.735 -91.1735 2.38542e-015 6.36111e-015 -49.3355 38.7872 47.0013 11.7309 6.19712 171.592 -18.3459 -6.36111e-015 -2.38542e-015 14.0676 3.69259 -7.89043 90 -1.49089e-016 3.18055e-015 -8.93431 -21.5464 155.908 -24.1868 0 5.96354e-016 5.22208 -1.54266 4.10968 90 -1.19271e-015 -0 
161.053 88.5296 279.76 43.412 -71.8307 -38.1086 4.34366 -1.69491 -1.84422 8.63662 -3.52336 -3.55704 8.63662 -3.52336 -3.55705 -8.30907e-012 -9.0191e-006 -5.27751e-005 7.85349 -0.0879797 8.65398 -179.382 -1.97409 -72.6184 -3.18306 8.64209 58.5539 -35.5445 3.97569e-016 7.95139e-016 -50.1159 -43.031 -45.5158 -177.833 7.52056 73.8718 24.5747 14.7017 -56.8911 -91.1488 5.56597e-015 -3.18055e-015 -49.2235 38.738 46.8544 11.4188 6.77333 172.233 -18.4564 -6.36111e-015 -7.95139e-016 14.0677 3.59731 -7.64547 90 4.47266e-016 3.18055e-015 -6.17498 -16.7139 157.852 -23.3487 1.59028e-015 -1.39149e-015 5.94073 -2.36508 6.05945 90 -6.21202e-016 -0 
161.753 88.554 279.466 42.9127 -72.7093 -39.0051 4.24756 -1.69838 -1.75167 8.44717 -3.52065 -3.37488 8.44717 -3.52065 -3.37489 -8.30589e-012 -9.0191e-006 -5.27751e-005 7.60594 -0.0962659 8.80785 -179.388 -1.96858 -72.7234 -3.08341 8.51062 58.8596 -35.5011 7.95139e-016 1.98785e-016 -50.487 -42.9393 -45.7955 -177.864 7.46028 73.9727 24.0551 14.7243 -56.8675 -91.3487 4.77083e-015 -0 -48.8457 38.9414 46.5417 11.1138 7.18749 172.932 -18.2962 0 7.95139e-016 13.9671 3.43933 -7.26563 90 2.80783e-015 -9.54166e-015 -4.1925 -12.9713 159.297 -21.9662 -7.95139e-016 4.47266e-015 6.03706 -3.401 8.1596 90 8.07563e-017 3.97569e-016 
162.501 88.5814 279.147 42.4313 -73.4842 -39.8902 4.16883 -1.73752 -1.64558 8.29211 -3.58896 -3.16258 8.29211 -3.58896 -3.16259 -8.30748e-012 -9.0191e-006 -5.27751e-005 7.36589 -0.00678339 8.90062 -179.426 -1.86533 -72.8798 -3.27191 8.58055 59.2676 -35.4952 -1.59028e-015 1.98785e-015 -50.2916 -43.0092 -45.6204 -177.862 7.48966 74.0195 23.5583 14.874 -56.8029 -91.5279 -7.95139e-016 -9.54166e-015 -48.7335 38.7114 46.3177 10.8993 7.85672 173.686 -18.0821 3.18055e-015 1.59028e-015 13.8408 3.35336 -6.94859 90 1.0312e-015 -3.18055e-015 -2.54367 -10.5351 160.508 -20.1022 -3.97569e-016 2.33572e-015 5.93103 -4.29314 9.7865 90 -5.59082e-017 -0 
163.324 88.6198 278.781 41.7095 -74.1715 -41.1 4.12934 -1.78528 -1.52878 8.21588 -3.67499 -2.92702 8.21588 -3.67499 -2.92703 -8.30589e-012 -9.0191e-006 -5.27751e-005 7.00097 0.215198 9.13038 -179.504 -1.63953 -73.1549 -3.56265 8.58771 59.7881 -35.4464 7.95139e-016 4.77083e-015 -50.3068 -42.8947 -45.5869 -177.855 7.48696 73.9615 23.3301 15.0743 -56.6713 -91.7176 2.38542e-015 -3.18055e-015 -48.7042 38.8352 46.3527 10.7985 8.5359 174.712 -17.8876 6.36111e-015 -0 13.962 3.59737 -7.61583 90 2.2239e-015 -6.36111e-015 -0.95522 -10.17 161.908 -17.2317 9.93923e-016 -2.18663e-015 5.92565 -4.87022 9.61326 90 6.21202e-018 -7.95139e-016 
164.206 88.6959 278.382 40.4767 -75.0443 -42.9815 4.094 -1.80095 -1.38428 8.14963 -3.69521 -2.63825 8.14962 -3.69521 -2.63826 -8.30907e-012 -9.0191e-006 -5.27751e-005 6.61911 0.676655 9.38764 -179.55 -1.50147 -73.3254 -3.96235 8.49598 60.1818 -35.4113 7.95139e-016 -1.98785e-015 -50.2201 -42.6666 -45.3389 -177.879 7.40733 73.9695 23.4057 15.1566 -56.7343 -91.7254 1.59028e-015 -1.27222e-014 -48.7931 38.6445 46.2798 10.7831 9.40083 175.787 -17.3643 -6.36111e-015 -7.95139e-016 13.6847 3.51322 -7.32516 90 -5.8393e-016 -0 -1.01648 -10.4308 163.23 -16.7527 0 -4.96962e-016 6.61261 -5.13676 9.65578 90 -8.38623e-017 -0 
